name rise30.3154peak39.0474fall46.5389.mot
datacolumns 19
datarows 12
range 9.65830100000000 9.67663400000000
endheader
time	ground_force1_vx	ground_force1_vy	ground_force1_vz	ground_force1_px	ground_force1_py	ground_force1_pz	ground_force2_vx	ground_force2_vy	ground_force2_vz	ground_force2_px	ground_force2_py	ground_force2_pz	ground_torque1_x	ground_torque1_y	ground_torque1_z	ground_torque2_x	ground_torque2_y	ground_torque2_z	
9.65830100000000	0.91032100000000	686.69532300000003	38.15392700000000	0.23822700000000	0.00000000000000	0.10527800000000	0.00000000000000	0.00000000000000	0.00000000000000	0.00000000000000	0.00000000000000	0.00000000000000	0.00000000000000	16.71569500000000	0.00000000000000	0.00000000000000	0.00000000000000	0.00000000000000	
9.65996700000000	0.76451700000000	686.91499999999996	38.20069700000000	0.23773400000000	0.00000000000000	0.10522500000000	0.00000000000000	0.00000000000000	0.00000000000000	0.00000000000000	0.00000000000000	0.00000000000000	0.00000000000000	16.75479300000000	0.00000000000000	0.00000000000000	0.00000000000000	0.00000000000000	
9.66163400000000	0.61050600000000	687.20029099999999	38.25686100000000	0.23725700000000	0.00000000000000	0.10517100000000	0.00000000000000	0.00000000000000	0.00000000000000	0.00000000000000	0.00000000000000	0.00000000000000	0.00000000000000	16.80174600000000	0.00000000000000	0.00000000000000	0.00000000000000	0.00000000000000	
9.66330000000000	0.44744000000000	687.55103199999996	38.32217900000000	0.23679100000000	0.00000000000000	0.10511800000000	0.00000000000000	0.00000000000000	0.00000000000000	0.00000000000000	0.00000000000000	0.00000000000000	0.00000000000000	16.85646600000000	0.00000000000000	0.00000000000000	0.00000000000000	0.00000000000000	
9.66496300000000	0.27448500000000	687.96705699999995	38.39640700000000	0.23633400000000	0.00000000000000	0.10506600000000	0.00000000000000	0.00000000000000	0.00000000000000	0.00000000000000	0.00000000000000	0.00000000000000	0.00000000000000	16.91885900000000	0.00000000000000	0.00000000000000	0.00000000000000	0.00000000000000	
9.66663200000000	0.09081900000000	688.44819800000005	38.47929700000000	0.23588500000000	0.00000000000000	0.10501300000000	0.00000000000000	0.00000000000000	0.00000000000000	0.00000000000000	0.00000000000000	0.00000000000000	0.00000000000000	16.98881800000000	0.00000000000000	0.00000000000000	0.00000000000000	0.00000000000000	
9.66829700000000	-0.10436200000000	688.99428899999998	38.57059800000000	0.23544000000000	0.00000000000000	0.10496200000000	0.00000000000000	0.00000000000000	0.00000000000000	0.00000000000000	0.00000000000000	0.00000000000000	0.00000000000000	17.06623000000000	0.00000000000000	0.00000000000000	0.00000000000000	0.00000000000000	
9.66997100000000	-0.31184400000000	689.60516399999995	38.67005900000000	0.23499700000000	0.00000000000000	0.10491100000000	0.00000000000000	0.00000000000000	0.00000000000000	0.00000000000000	0.00000000000000	0.00000000000000	0.00000000000000	17.15097300000000	0.00000000000000	0.00000000000000	0.00000000000000	0.00000000000000	
9.67163000000000	-0.53238900000000	690.28066000000001	38.77742600000000	0.23455400000000	0.00000000000000	0.10486200000000	0.00000000000000	0.00000000000000	0.00000000000000	0.00000000000000	0.00000000000000	0.00000000000000	0.00000000000000	17.24291500000000	0.00000000000000	0.00000000000000	0.00000000000000	0.00000000000000	
9.67329700000000	-0.76673600000000	691.02061200000003	38.89244500000000	0.23410700000000	0.00000000000000	0.10481300000000	0.00000000000000	0.00000000000000	0.00000000000000	0.00000000000000	0.00000000000000	0.00000000000000	0.00000000000000	17.34191900000000	0.00000000000000	0.00000000000000	0.00000000000000	0.00000000000000	
9.67496300000000	-1.01559600000000	691.82485799999995	39.01486100000000	0.23365500000000	0.00000000000000	0.10476600000000	0.00000000000000	0.00000000000000	0.00000000000000	0.00000000000000	0.00000000000000	0.00000000000000	0.00000000000000	17.44783800000000	0.00000000000000	0.00000000000000	0.00000000000000	0.00000000000000	
9.67663400000000	-1.27964900000000	692.69323099999997	39.14442200000000	0.23319600000000	0.00000000000000	0.10471900000000	0.00000000000000	0.00000000000000	0.00000000000000	0.00000000000000	0.00000000000000	0.00000000000000	0.00000000000000	17.56051700000000	0.00000000000000	0.00000000000000	0.00000000000000	0.00000000000000	
